<?xml version="1.0" standalone="no"?>
<!DOCTYPE svg PUBLIC "-//W3C//DTD SVG 20010904//EN"
 "http://www.w3.org/TR/2001/REC-SVG-20010904/DTD/svg10.dtd">
<svg version="1.0" xmlns="http://www.w3.org/2000/svg"
 width="1024.000000pt" height="1024.000000pt" viewBox="0 0 1024.000000 1024.000000"
 preserveAspectRatio="xMidYMid meet">
<metadata>
Created by potrace 1.16, written by Peter Selinger 2001-2019
</metadata>
<g transform="translate(0.000000,1024.000000) scale(0.100000,-0.100000)"
fill="#000000" stroke="none">
<path d="M4925 8364 c-630 -51 -1167 -239 -1701 -595 -486 -324 -929 -856
-1171 -1404 -127 -289 -220 -633 -258 -953 -21 -173 -21 -549 0 -718 33 -269
104 -554 201 -801 53 -137 163 -367 222 -466 l40 -69 6 79 c19 231 51 389 142
703 92 313 125 440 158 600 17 84 36 233 31 238 -2 2 -29 10 -61 19 -220 57
-371 257 -391 516 l-6 79 104 -67 c204 -132 241 -159 305 -224 l65 -65 -3 149
-3 150 -25 4 c-54 7 -152 62 -209 116 -101 96 -160 247 -161 408 0 43 4 67 11
67 24 0 228 -157 307 -236 l82 -83 0 124 0 124 -50 47 c-101 95 -134 235 -95
410 27 122 175 390 210 380 20 -5 107 -132 150 -218 57 -114 79 -212 73 -331
-4 -75 -9 -102 -31 -144 -32 -62 -80 -120 -108 -128 -17 -6 -19 -16 -18 -133
0 -123 1 -126 17 -102 28 41 100 105 232 205 l125 94 8 -27 c13 -42 0 -191
-23 -263 -46 -152 -190 -289 -319 -306 l-41 -6 0 -144 0 -145 47 52 c29 32
112 95 224 169 l177 118 6 -29 c8 -40 -10 -156 -35 -230 -56 -168 -200 -302
-359 -333 l-55 -12 -27 -159 c-32 -192 -62 -316 -173 -704 -120 -423 -145
-562 -145 -821 l0 -131 37 -51 c68 -92 143 -180 264 -309 l120 -127 -97 -3
-98 -3 45 -52 44 -52 2420 0 2420 -1 44 53 44 52 -102 3 c-95 3 -119 10 -88
29 8 4 71 68 140 142 l127 133 -29 34 c-17 18 -33 48 -36 66 -3 18 -5 293 -3
610 3 567 3 577 24 605 11 15 36 38 54 50 69 47 176 16 211 -60 17 -39 19 -72
19 -527 l0 -485 35 60 c281 489 429 933 476 1428 17 185 7 584 -20 752 -69
440 -185 769 -411 1170 l-51 89 12 86 c49 348 -246 692 -616 718 -78 5 -81 6
-145 57 -218 173 -581 380 -865 493 -276 110 -539 178 -840 217 -115 15 -505
27 -610 19z m-1234 -625 c259 -133 369 -281 369 -497 l0 -73 -77 62 c-112 90
-149 126 -198 194 -64 90 -214 365 -199 365 3 0 51 -23 105 -51z m878 -214 c2
-213 -73 -355 -268 -507 -36 -28 -80 -65 -98 -81 l-32 -30 -7 29 c-5 16 -8 81
-8 144 0 103 3 124 30 200 17 47 48 113 69 145 46 70 157 184 235 242 l55 41
12 -47 c6 -25 11 -86 12 -136z m2311 15 c109 -21 210 -82 280 -171 28 -35 41
-45 52 -38 9 5 47 12 84 15 77 7 164 -10 236 -47 67 -34 151 -122 189 -196 33
-64 34 -72 34 -178 0 -108 -1 -113 -37 -186 -46 -92 -121 -169 -205 -211 -49
-24 -79 -31 -147 -35 -148 -10 -249 31 -352 140 -36 38 -67 67 -69 65 -8 -8
15 -110 34 -146 26 -50 24 -51 -114 -59 -113 -6 -188 8 -277 53 -63 32 -170
132 -206 193 -14 24 -28 39 -30 32 -8 -23 19 -134 44 -183 13 -26 24 -51 24
-56 0 -5 -26 -14 -57 -21 -158 -31 -307 13 -412 124 -201 212 -143 554 115
682 65 31 85 36 166 40 67 3 107 0 143 -11 47 -15 51 -15 63 2 33 46 118 122
162 146 48 26 148 54 201 55 15 1 50 -4 79 -9z m-3113 -331 c130 -65 219 -144
264 -234 27 -56 31 -72 30 -150 0 -48 -2 -90 -6 -93 -3 -3 -20 8 -38 24 -17
17 -71 60 -118 96 -88 68 -154 135 -244 248 -55 69 -135 184 -135 193 0 15
155 -38 247 -84z m930 -271 c-13 -210 -86 -358 -237 -481 -63 -51 -309 -192
-318 -182 -12 11 -6 188 7 245 25 107 78 198 165 285 91 89 155 131 289 186
51 21 94 38 96 38 2 1 1 -41 -2 -91z m-1111 -84 c209 -78 336 -170 394 -285
26 -49 36 -133 26 -213 l-7 -56 -93 79 c-110 94 -152 140 -231 246 -121 165
-179 255 -161 255 2 0 34 -12 72 -26z m-25 -445 c90 -34 230 -116 277 -162 81
-77 104 -162 82 -292 -7 -41 -14 -75 -15 -75 -8 0 -233 236 -265 280 -68 89
-176 243 -189 268 -12 22 -11 23 11 17 12 -4 57 -20 99 -36z m1154 -231 c-62
-218 -198 -378 -385 -452 -64 -25 -340 -99 -346 -93 -2 2 3 28 10 58 88 336
322 550 661 603 98 15 98 15 60 -116z m1405 -224 c0 -288 -2 -335 -14 -331
-15 6 -68 20 -118 31 l-28 6 0 315 0 315 80 0 80 0 0 -336z m1116 -307 c0
-351 -3 -636 -6 -635 -4 2 -42 36 -85 75 l-77 73 -1 439 c-2 416 -3 440 -21
460 -26 28 -79 28 -106 -1 -19 -21 -20 -33 -20 -400 0 -208 -2 -378 -4 -378
-3 0 -39 23 -81 50 -41 28 -87 56 -100 62 l-25 11 0 304 c0 365 -2 373 -95
373 -63 0 -65 -10 -65 -317 0 -150 -3 -273 -7 -273 -4 0 -49 16 -100 36 l-93
36 0 364 0 364 443 -2 442 -3 1 -638z m-1583 553 l78 -23 -38 -40 c-79 -81
-194 -137 -284 -137 -54 0 -169 21 -169 31 0 17 23 66 47 102 27 38 73 72 121
88 43 14 160 4 245 -21z m1965 -66 l22 -25 0 -399 c0 -392 0 -399 21 -413 27
-19 54 -11 68 19 7 17 11 149 11 418 0 367 1 394 18 409 34 31 75 32 110 2
l32 -27 0 -397 c0 -412 1 -420 41 -434 9 -3 26 1 38 9 21 15 21 19 21 409 0
273 3 402 11 419 23 51 99 53 133 4 23 -33 24 -882 1 -949 -35 -99 -115 -184
-202 -214 l-38 -13 4 -226 3 -226 -86 0 -86 0 -1 198 c-2 281 3 253 -49 270
-56 19 -146 107 -180 177 l-25 50 -3 454 c-3 402 -1 456 13 478 32 48 82 51
123 7z m-4155 -105 c177 -89 284 -171 335 -258 24 -41 27 -56 27 -138 0 -50
-3 -94 -7 -98 -10 -10 -157 105 -213 167 -26 29 -67 83 -91 120 -61 94 -132
238 -118 238 2 0 33 -14 67 -31z m1658 -120 c19 -6 51 -25 71 -40 32 -25 40
-28 57 -17 26 16 71 -13 71 -47 0 -20 -9 -27 -57 -44 -89 -32 -125 -55 -160
-100 -82 -105 -68 -266 30 -361 20 -19 37 -39 37 -43 0 -10 -82 1 -133 18 -38
13 -38 13 -24 -8 41 -63 156 -117 246 -117 149 0 321 121 361 252 l12 41 94
-6 c274 -18 667 -140 918 -285 377 -218 597 -479 661 -784 21 -97 21 -455 1
-503 -22 -51 -69 -77 -134 -72 -94 7 -132 64 -132 199 0 66 -5 93 -24 134 -84
181 -362 158 -444 -35 -9 -22 -17 -88 -22 -166 -7 -135 -18 -173 -64 -223 -35
-39 -90 -62 -148 -62 -61 0 -103 21 -140 72 -37 49 -48 91 -48 183 0 96 -27
162 -90 219 -105 95 -302 82 -408 -27 -55 -57 -79 -108 -96 -203 -17 -96 -35
-135 -89 -192 -94 -96 -256 -109 -363 -27 -48 36 -92 110 -104 173 -19 103
-31 136 -66 189 -159 234 -590 213 -714 -35 -11 -24 -27 -82 -35 -128 -21
-129 -69 -197 -171 -240 -49 -21 -147 -22 -195 -2 -50 22 -116 83 -142 132
-18 35 -22 64 -27 191 -5 135 -8 154 -30 194 -14 24 -42 58 -62 74 -78 63
-198 42 -255 -44 -24 -36 -27 -53 -33 -157 -3 -64 -11 -126 -17 -137 -51 -92
-150 -91 -189 2 -19 45 -19 346 0 445 81 420 456 782 1021 986 191 69 525 142
652 142 55 0 55 0 49 28 -35 160 0 286 105 376 67 57 158 79 230 55z m-1675
-2209 c73 0 74 0 90 -32 9 -18 35 -52 57 -75 l41 -43 -202 0 -202 0 2 -222 3
-223 1958 -3 1957 -2 0 225 0 225 -289 0 -288 0 32 35 c18 19 41 52 52 74 l18
40 140 3 140 3 33 -27 c61 -51 106 -68 182 -68 40 0 86 6 107 15 19 8 37 15
39 15 2 0 4 -209 4 -465 l0 -465 -85 0 -85 0 0 100 0 100 -1960 0 -1960 0 0
-100 0 -100 -85 0 -85 0 -2 203 c-7 702 -6 719 16 711 12 -4 45 -9 74 -11 43
-4 63 0 108 22 30 15 62 37 72 51 9 13 23 21 30 19 8 -3 47 -5 88 -5z m1443
-32 c8 -18 32 -52 54 -75 l40 -43 -387 0 -387 0 34 35 c19 19 42 53 52 75 l18
40 281 0 281 0 14 -32z m1127 1 c8 -17 34 -51 56 -75 l41 -44 -279 0 -278 0
30 28 c17 15 43 49 58 75 l28 47 164 0 163 0 17 -31z"/>
<path d="M5701 5329 c-70 -28 -121 -96 -121 -162 0 -87 94 -196 173 -200 36
-2 37 -3 37 -42 0 -97 53 -179 136 -211 86 -33 191 12 233 99 24 49 26 88 10
138 -28 81 -102 138 -180 139 l-37 0 5 44 c9 76 -33 158 -98 191 -31 17 -121
19 -158 4z"/>
<path d="M4675 5282 c-92 -44 -135 -140 -104 -233 37 -109 146 -164 244 -124
11 4 1 -7 -23 -24 -47 -35 -81 -97 -82 -147 0 -44 44 -125 84 -152 98 -66 226
-34 278 69 64 125 -54 284 -196 266 l-41 -5 35 18 c109 56 111 235 4 317 -48
36 -139 43 -199 15z"/>
<path d="M4328 5090 c-133 -42 -184 -182 -106 -296 25 -38 107 -84 149 -84 39
0 110 27 137 53 70 65 81 171 26 249 -46 65 -138 100 -206 78z"/>
<path d="M5295 5016 c-89 -42 -135 -112 -135 -206 0 -62 17 -104 61 -155 45
-51 100 -75 175 -75 197 0 308 211 193 370 -62 86 -191 115 -294 66z"/>
<path d="M3150 2409 c0 -12 224 -163 344 -232 646 -372 1385 -514 2113 -407
420 61 861 218 1218 433 93 56 241 154 292 194 22 17 -68 18 -1972 18 -1097 0
-1995 -3 -1995 -6z"/>
</g>
</svg>
